<?xml version="1.0" standalone="no"?>
<!DOCTYPE svg PUBLIC "-//W3C//DTD SVG 20010904//EN"
 "http://www.w3.org/TR/2001/REC-SVG-20010904/DTD/svg10.dtd">
<svg version="1.0" xmlns="http://www.w3.org/2000/svg"
 width="30.000000pt" height="30.000000pt" viewBox="0 0 30.000000 30.000000"
 preserveAspectRatio="xMidYMid meet">

<g transform="translate(0.000000,30.000000) scale(0.100000,-0.100000)"
fill="#000000" stroke="none">
<path d="M105 261 c-45 -20 -70 -60 -70 -112 0 -42 5 -53 33 -81 28 -28 39
-33 82 -33 43 0 54 5 82 33 28 28 33 39 33 82 0 42 -5 54 -31 81 -33 33 -92
46 -129 30z m94 -25 c67 -35 65 -143 -4 -174 -51 -23 -107 -7 -131 39 -47 91
44 182 135 135z"/>
<path d="M110 175 l-24 -26 27 -26 c27 -28 50 -26 27 2 -11 13 -7 15 29 15 22
0 41 5 41 10 0 6 -19 10 -42 10 -33 0 -39 3 -30 12 7 7 12 16 12 20 0 15 -17
8 -40 -17z"/>
</g>
</svg>
